<svg width="246" height="246" viewBox="0 0 246 246" fill="none" xmlns="http://www.w3.org/2000/svg">
<circle cx="123" cy="123" r="123" fill="#1C1C1C"/>
<path d="M51 167.64V76.44L101.64 72L113.64 78V97.56L83.76 100.08V107.52L97.32 106.32L109.32 112.32V131.88L83.76 134.04V171.72L63 173.64L51 167.64ZM96.12 124.8V107.64L70.56 109.8V93L100.44 90.48V73.32L52.2 77.52V166.44L70.56 164.76V126.96L96.12 124.8Z" fill="white"/>
<path d="M124.477 167.88V76.68L155.557 73.92C156.037 73.84 156.477 73.8 156.877 73.8C157.357 73.8 157.837 73.8 158.317 73.8C161.517 73.8 164.597 74.28 167.557 75.24C170.517 76.2 173.637 77.44 176.917 78.96C183.077 81.68 187.757 85.36 190.957 90C194.157 94.56 195.757 100.52 195.757 107.88C195.757 117.96 193.197 125.96 188.077 131.88C182.957 137.8 175.997 141.12 167.197 141.84L157.117 142.68V172.08L136.477 173.88L124.477 167.88ZM155.077 134.64C163.637 133.92 170.357 130.72 175.237 125.04C180.117 119.28 182.557 111.56 182.557 101.88C182.557 96.52 181.597 91.84 179.677 87.84C177.757 83.84 174.997 80.72 171.397 78.48C167.877 76.16 163.597 75 158.557 75C158.077 75 157.597 75 157.117 75C156.637 75 156.157 75.04 155.677 75.12L125.677 77.76V166.68L143.917 165.12V135.6L155.077 134.64ZM143.917 93.48L152.077 92.76C152.397 92.76 152.677 92.76 152.917 92.76C153.237 92.68 153.517 92.64 153.757 92.64C156.717 92.64 159.037 93.52 160.717 95.28C162.477 96.96 163.357 99.92 163.357 104.16C163.357 108.56 162.277 111.84 160.117 114C157.957 116.16 155.277 117.4 152.077 117.72L143.917 118.44V93.48ZM157.117 114.96C158.717 113.84 159.957 112.44 160.837 110.76C161.717 109.08 162.157 106.88 162.157 104.16C162.157 102.48 162.037 101.16 161.797 100.2L157.117 100.56V114.96Z" fill="white"/>
</svg>
